<svg width="100" height="60" viewBox="0 0 100 60" xmlns="http://www.w3.org/2000/svg">
  <!-- Base de la corona -->
  <path d="M10,50 L90,50 L90,40 C90,40 85,30 80,35 C75,40 70,20 70,20 C70,20 65,35 60,30 C55,25 50,10 50,10 C50,10 45,25 40,30 C35,35 30,20 30,20 C30,20 25,40 20,35 C15,30 10,40 10,40 L10,50 Z" fill="rgba(255, 215, 0, 0.9)" stroke="rgba(255, 215, 0, 1)" stroke-width="1"/>
  
  <!-- Detalles de la corona -->
  <path d="M15,50 L15,40 L85,40 L85,50 Z" fill="rgba(255, 215, 0, 0.7)"/>
  
  <!-- Puntas de la corona -->
  <path d="M20,40 L20,30 L25,35 L30,30 L35,35 L40,30 L45,35 L50,25 L55,35 L60,30 L65,35 L70,30 L75,35 L80,30 L80,40 Z" fill="rgba(255, 215, 0, 0.8)" stroke="rgba(255, 215, 0, 1)" stroke-width="0.5"/>
  
  <!-- Joyas de la corona -->
  <circle cx="25" cy="33" r="3" fill="rgba(216, 131, 182, 0.9)" stroke="rgba(255, 215, 0, 1)" stroke-width="0.5"/>
  <circle cx="50" cy="28" r="3" fill="rgba(21, 71, 52, 0.9)" stroke="rgba(255, 215, 0, 1)" stroke-width="0.5"/>
  <circle cx="75" cy="33" r="3" fill="rgba(216, 131, 182, 0.9)" stroke="rgba(255, 215, 0, 1)" stroke-width="0.5"/>
  
  <!-- Destellos -->
  <circle cx="25" cy="25" r="1" fill="rgba(255, 255, 255, 0.8)"/>
  <circle cx="50" cy="20" r="1" fill="rgba(255, 255, 255, 0.8)"/>
  <circle cx="75" cy="25" r="1" fill="rgba(255, 255, 255, 0.8)"/>
</svg>