<svg width="800" height="200" viewBox="0 0 800 200" xmlns="http://www.w3.org/2000/svg">
  <!-- Silueta de Nueva Orleans -->
  <g fill="rgba(21, 71, 52, 0.8)">
    <!-- Edificios y elementos arquitectónicos -->
    <path d="M0,200 L0,150 L20,150 L20,130 L30,130 L30,110 L40,110 L40,120 L50,120 L50,100 L60,100 L60,110 L70,110 L70,90 L80,90 L80,120 L90,120 L90,140 L100,140 L100,120 L110,120 L110,100 L120,100 L120,130 L130,130 L130,110 L140,110 L140,90 L150,90 L150,110 L160,110 L160,130 L170,130 L170,120 L180,120 L180,100 L190,100 L190,80 L200,80 L200,100 L210,100 L210,120 L220,120 L220,90 L230,90 L230,110 L240,110 L240,130 L250,130 L250,110 L260,110 L260,90 L270,90 L270,70 L280,70 L280,90 L290,90 L290,110 L300,110 L300,130 L310,130 L310,110 L320,110 L320,90 L330,90 L330,70 L340,70 L340,90 L350,90 L350,110 L360,110 L360,130 L370,130 L370,110 L380,110 L380,90 L390,90 L390,70 L400,70 L400,90 L410,90 L410,110 L420,110 L420,130 L430,130 L430,110 L440,110 L440,90 L450,90 L450,70 L460,70 L460,90 L470,90 L470,110 L480,110 L480,130 L490,130 L490,110 L500,110 L500,90 L510,90 L510,70 L520,70 L520,90 L530,90 L530,110 L540,110 L540,130 L550,130 L550,110 L560,110 L560,90 L570,90 L570,70 L580,70 L580,90 L590,90 L590,110 L600,110 L600,130 L610,130 L610,110 L620,110 L620,90 L630,90 L630,70 L640,70 L640,90 L650,90 L650,110 L660,110 L660,130 L670,130 L670,110 L680,110 L680,90 L690,90 L690,70 L700,70 L700,90 L710,90 L710,110 L720,110 L720,130 L730,130 L730,110 L740,110 L740,90 L750,90 L750,70 L760,70 L760,90 L770,90 L770,110 L780,110 L780,130 L790,130 L790,150 L800,150 L800,200 Z" />
    
    <!-- Catedral de St. Louis -->
    <path d="M320,70 L320,40 L330,30 L340,40 L340,70 Z" />
    
    <!-- Barco de vapor en el río Mississippi -->
    <path d="M100,150 L120,150 L120,140 L140,140 L140,150 L160,150 L160,140 L180,140 L180,150 L200,150 L200,130 L100,130 Z" />
    
    <!-- Farolas y detalles -->
    <rect x="250" y="110" width="2" height="20" />
    <circle cx="251" cy="110" r="3" />
    
    <rect x="450" y="110" width="2" height="20" />
    <circle cx="451" cy="110" r="3" />
    
    <rect x="650" y="110" width="2" height="20" />
    <circle cx="651" cy="110" r="3" />
  </g>
  
  <!-- Luciérnagas decorativas -->
  <circle cx="120" cy="60" r="1" fill="rgba(255, 215, 0, 0.8)" />
  <circle cx="350" cy="40" r="1" fill="rgba(255, 215, 0, 0.8)" />
  <circle cx="580" cy="50" r="1" fill="rgba(255, 215, 0, 0.8)" />
  <circle cx="700" cy="30" r="1" fill="rgba(255, 215, 0, 0.8)" />
  <circle cx="220" cy="70" r="1" fill="rgba(255, 215, 0, 0.8)" />
  <circle cx="480" cy="60" r="1" fill="rgba(255, 215, 0, 0.8)" />
  
  <!-- Luna -->
  <circle cx="50" cy="40" r="15" fill="rgba(255, 215, 0, 0.3)" />
</svg>